<svg xmlns="http://www.w3.org/2000/svg" width="83" height="100" viewBox="0 0 83 100">
    <g fill="#323E48" fill-rule="evenodd">
        <path d="M52.151 50.73c0 .44-.22.66-.66.66H39.874v6.468h8.878c.418 0 .627.22.627.66v3.036c0 .44-.21.66-.627.66h-8.878v8.482c0 .44-.22.66-.66.66h-3.53c-.419 0-.628-.22-.628-.66V47.528c0-.44.209-.66.627-.66h15.808c.44 0 .66.22.66.66v3.202zM72.96 18.915c-.285.365-.501.323-.79-.022-.26-.312-.507-.655-.953-.717-.017-.002-.082-.007-.116.018-.09.066-.02.187.005.258.631 1.69-.327 2.588-1.635 3.322-.568.32-.799.47-1.381.759-.407.201-.835.435-1.28.53-1.042.227-1.782-.69-1.641-1.737.07-.522 1.447-4.247 2.047-6.135.5-1.579.945-3.103 1.067-3.955.483-3.395-.87-4.602-1.626-7.08-.225-1.255-.243-2.006-.893-3.06-.769-1.249-1.922-1.442-3.026-.52-.315.264-.611.55-.907.836-2.177 2.1-4.188 4.357-6.256 6.562-2.63 2.803-5.185 5.68-8.074 8.228-.864.762-1.781 1.403-2.975 1.528-1.778.186-3.555.372-5.328.592-2.477.307-4.885.869-7.194 1.862-2.796 1.202-4.74 3.351-6.586 5.65-.892 1.112-1.88 2.146-2.8 3.235-2.063 2.44-4.688 3.796-7.797 4.527C9.446 34.858 4.716 37.391.814 41.377c-.48.491-.454.808-.036 1.257.88.946 1.955 1.567 3.172 1.955 2.476.791 5 .717 7.534.372.794-.107 1.583-.248 2.514-.395-1.59 2.495-3.15 4.82-4.83 7.061-1.58 2.106-2.84 4.441-5.24 5.937-.322.2-.27.532.18.596 1.47.21 2.726.174 4.305.074-1.393 1.522-2.783 2.777-4.21 3.992-1.22 1.04-2.47 2.041-4.006 2.74-.265.121-.305.596.145.66 33.781 7.232 20.235 24.033 46.626 33.11 1.264.431 3.865 1.334 4.038 1.003.218-.416-.29-2.486-.422-3.681-.27-2.429-.451-4.861-.358-7.308.02-.524.109-.729.66-.383.819.511 1.684.941 2.59 1.29.533.206.598-.008.51-.442-.449-2.228-.751-4.475-.928-6.74-.096-1.24-.142-2.478.253-3.76.774.74 1.207 1.515 2.13 1.941.684.317.923.31.881-.421-.123-2.194-.319-4.386-.38-6.582-.131-4.762-.115-9.522.204-14.28.21-3.112.423-6.22 1.062-9.277.578-2.762 1.425-5.422 3.191-7.693.207-.265.376-.602.767-.69.115.468.195.896.33 1.305.112.342.261.784.627.825.387.045.907-1.325 1.041-1.614.46-.986 2.7-4.912 4.738-7.298 1.256-1.471 2.75-2.72 3.987-4.215 2.916-3.524 3.858-7.165 1.896-11.466-.227-.498-.48-.78-.826-.335z"/>
        <path d="M77.333 70.696v-9.9h-10.99v9.9c0 .44-.242.66-.726.66h-3.465c-.418 0-.627-.22-.627-.66V47.562c0-.198.05-.363.149-.496.099-.132.258-.198.478-.198h3.564c.132 0 .27.045.413.132.143.089.214.264.214.528v8.614h10.99v-8.58c0-.198.05-.363.149-.496.098-.132.258-.198.478-.198h3.564c.132 0 .264.045.396.132.132.089.198.264.198.528v23.168c0 .44-.23.66-.693.66H77.96c-.418 0-.627-.22-.627-.66"/>
    </g>
</svg>
