<svg xmlns="http://www.w3.org/2000/svg" xmlns:xlink="http://www.w3.org/1999/xlink" width="710" height="100" viewBox="0 0 710 100">
    <defs>
        <linearGradient id="xmk56g8l1b" x1="34.755%" x2="82.723%" y1="43.05%" y2="46.163%">
            <stop offset="0%" stop-color="#00A6CE"/>
            <stop offset="100%" stop-color="#C2D500"/>
        </linearGradient>
        <path id="81d2up455a" d="M0 0H709V99H0z"/>
    </defs>
    <g fill="none" fill-rule="evenodd">
        <g>
            <g transform="translate(-730 -512) translate(730.752 512.61)">
                <mask id="mqdfxl8hrc" fill="#fff">
                    <use xlink:href="#81d2up455a"/>
                </mask>
                <path fill="url(#xmk56g8l1b)" fill-rule="nonzero" d="M-572.853 481.93c4.381-.65 9.103-1.508 14.142-2.57l-.413-1.957c-5 1.054-9.683 1.905-14.023 2.548l.294 1.979zm41.987-9.593c2.29-.657 4.618-1.342 6.981-2.054l-.577-1.915c-2.354.71-4.673 1.392-6.955 2.047l.551 1.922zm20.656-6.345c8.686-2.83 17.743-5.97 27.094-9.395l-.688-1.878c-9.329 3.417-18.362 6.549-27.026 9.371l.62 1.902zm33.926-11.928c4.404-1.653 8.864-3.364 13.372-5.132l-.73-1.862c-4.5 1.764-8.95 3.472-13.345 5.121l.703 1.873zm39.942-15.963c2.225-.94 4.458-1.893 6.697-2.856l-.79-1.838c-2.236.962-4.464 1.913-6.686 2.852l.779 1.842zm19.813-8.593c8.64-3.84 17.336-7.827 26.053-11.944l-.854-1.808c-8.703 4.11-17.386 8.09-26.011 11.924l.812 1.828zm32.637-15.076c4.298-2.06 8.596-4.15 12.89-6.268l-.884-1.794c-4.288 2.115-8.58 4.201-12.87 6.258l.864 1.804zm38.439-19.22c2.153-1.123 4.303-2.25 6.45-3.385l-.935-1.768c-2.143 1.132-4.29 2.258-6.44 3.379l.925 1.773zm19.087-10.154c8.429-4.576 16.778-9.233 25.027-13.963l-.995-1.735c-8.235 4.722-16.571 9.372-24.986 13.94l.954 1.758zm31.327-17.601c4.146-2.41 8.263-4.838 12.349-7.282l-1.027-1.716c-4.079 2.439-8.189 4.862-12.328 7.269l1.006 1.729zm36.778-22.316c2.055-1.302 4.1-2.608 6.135-3.916l-1.082-1.682c-2.03 1.306-4.072 2.609-6.123 3.908l1.07 1.69zm18.145-11.76c8.078-5.358 15.968-10.76 23.656-16.2l-1.156-1.632c-7.67 5.428-15.544 10.818-23.605 16.165l1.105 1.666zm29.558-20.411c3.912-2.817 7.768-5.641 11.565-8.474l-1.196-1.603c-3.788 2.826-7.635 5.644-11.537 8.453l1.168 1.624zm34.24-26.036c1.9-1.53 3.782-3.063 5.647-4.597l-1.271-1.544c-1.859 1.529-3.736 3.057-5.631 4.584l1.254 1.557zm16.638-13.837c7.438-6.393 14.544-12.8 21.306-19.211l-1.376-1.451c-6.738 6.389-13.82 12.773-21.234 19.145l1.304 1.517zm26.556-24.26c3.475-3.387 6.852-6.776 10.128-10.163l-1.437-1.39c-3.263 3.373-6.626 6.747-10.087 10.122l1.396 1.432zm29.39-31.448c1.582-1.876 3.13-3.752 4.645-5.626l-1.555-1.257c-1.507 1.863-3.047 3.729-4.619 5.595l1.53 1.288zm13.593-16.793c6.245-7.651 12.443-14.85 18.656-21.655l-1.476-1.349c-6.24 6.834-12.462 14.06-18.73 21.74l1.55 1.264zm23.597-26.98c3.313-3.511 6.636-6.918 9.978-10.224l-1.407-1.422c-3.358 3.323-6.697 6.746-10.025 10.274l1.454 1.372zm31.027-29.528c1.852-1.568 3.713-3.11 5.586-4.628l-1.26-1.554c-1.883 1.527-3.756 3.078-5.618 4.655l1.292 1.527zm16.865-13.375c7.663-5.68 15.536-10.993 23.671-15.964l-1.043-1.706c-8.186 5.002-16.109 10.348-23.819 16.063l1.191 1.607zm29.911-19.68c4.097-2.377 8.263-4.674 12.504-6.89l-.926-1.773c-4.267 2.23-8.46 4.541-12.581 6.933l1.003 1.73zm38.33-19.03c2.218-.932 4.456-1.848 6.716-2.746l-.739-1.859c-2.272.904-4.522 1.824-6.752 2.762l.776 1.843zm20.102-7.776c8.745-3.102 17.814-5.973 27.238-8.62l-.541-1.925c-9.466 2.658-18.578 5.542-27.366 8.66l.67 1.885zm34.258-10.533c4.539-1.199 9.16-2.349 13.867-3.45l-.456-1.948c-4.725 1.106-9.365 2.26-13.922 3.465l.51 1.933zm41.845-9.241c1.203-.22 2.412-.435 3.626-.649 1.189-.209 2.37-.43 3.548-.667l-.393-1.96c-1.162.232-2.328.451-3.5.657-1.219.215-2.432.431-3.639.65l.358 1.969zm21.16-4.804c8.79-2.627 17.36-5.986 26.827-10.376l-.841-1.814c-9.387 4.351-17.87 7.677-26.558 10.273l.573 1.917zm33.413-13.519l2.376-1.17 2.456-1.227 4.926-2.498 3.047-1.557-.912-1.78-6.056 3.088-2.97 1.495-3.067 1.52-.679.333.88 1.796zm38.47-19.026c2.255-1.004 4.468-1.951 6.66-2.85l-.757-1.85c-2.212.905-4.443 1.86-6.717 2.872l.814 1.828zm20.032-7.78c.55-.18 1.1-.357 1.65-.53 3.109-.983 7.04-1.396 11.86-1.279l1.046.034c.354.014.712.03 1.074.05l1.101.065c.558.037 1.126.08 1.704.128l1.17.106c.198.019.396.038.596.059l1.213.129 1.24.145.631.078 1.284.168 1.311.184 1.341.199.681.105.31-1.976c-3.272-.512-6.305-.897-9.111-1.147l-1.19-.1-1.16-.082c-.383-.025-.761-.047-1.135-.066l-1.106-.05-1.08-.032c-4.975-.112-9.074.33-12.382 1.374-.557.176-1.113.355-1.67.536l.622 1.901zm35.043.887l1.585.306 1.623.323 1.666.34.85.176 1.736.367 1.789.386 1.844.405 2.88.646.443-1.95-1.944-.438-1.882-.417-1.824-.398-1.77-.378-1.721-.359-1.675-.341-1.632-.325-1.595-.308-.373 1.965zm41.835 9.539l3.66.85 2.594.594.842.19.44-1.951-2.553-.58-2.668-.617-1.859-.434-.456 1.948zm21.148 4.602c1.357.262 2.686.511 3.99.746l1.934.342c2.234.387 4.389.731 6.47 1.033l1.765.247 1.73.226c4.567.576 8.764.925 12.656 1.04l.06-1.998c-5.988-.179-12.733-.92-20.477-2.203l-1.877-.318c-.633-.11-1.272-.222-1.917-.339l-1.957-.36c-.659-.123-1.324-.25-1.997-.38l-.38 1.964zm35.915 3.547c3.733-.222 7.096-.73 10.09-1.544 1.373-.373 2.756-.762 4.15-1.166l-.557-1.921c-1.384.401-2.755.787-4.117 1.157-2.853.775-6.082 1.263-9.685 1.477l.119 1.997zm40.782-13.712l.685 1.879 6.835-2.508-.69-1.877-6.267 2.3-.563.206zm20.29-7.394l.667 1.886 2.159-.76 2.11-.733 1.039-.357 2.045-.694 2.007-.67 1.972-.647c.652-.212 1.3-.42 1.942-.625l1.914-.603c.951-.296 1.894-.585 2.83-.867l1.864-.554c1.238-.363 2.466-.714 3.69-1.055l1.836-.504 1.832-.488-.508-1.935c-3.51.922-7.008 1.92-10.614 3.023l-1.978.612-2.004.635c-1.345.431-2.71.877-4.102 1.34l-2.107.709-2.15.734-1.092.378-2.222.776-1.13.4zm34.94-8.407c4.668-1.075 9.312-1.99 13.985-2.746l-.319-1.974c-4.718.763-9.405 1.687-14.114 2.771l.449 1.95zm42.363-5.333c2.393-.053 4.807-.066 7.242-.04l.023-2c-2.458-.027-4.894-.013-7.31.04l.045 2zm21.488.566c2.81.206 5.654.462 8.533.772 7.274.781 13.715 1.952 19.556 3.516l.517-1.932c-5.943-1.591-12.485-2.78-19.86-3.573-2.9-.312-5.767-.57-8.6-.777l-.146 1.994zm34.977 6.406c4.527 1.582 8.729 3.446 12.968 5.697l.938-1.766c-4.326-2.298-8.62-4.202-13.246-5.82l-.66 1.889zm37.319 20.647c2.158 1.283 4.256 2.47 6.378 3.599l.94-1.766c-2.093-1.114-4.164-2.285-6.296-3.552l-1.022 1.719zm19.459 9.687c8.108 3.256 17.13 5.985 27.575 8.236l.422-1.955c-10.337-2.227-19.25-4.924-27.252-8.137l-.745 1.856zm34.747 9.663c4.487.823 9.211 1.565 14.194 2.224l.262-1.982c-4.95-.656-9.641-1.392-14.095-2.21l-.36 1.968zm42.774 4.925c2.38.148 4.805.282 7.277.402l.097-1.997c-2.463-.12-4.88-.254-7.25-.401l-.124 1.996zm21.59.93c6.425.167 13.132.251 20.133.251v-2c-6.984 0-13.674-.084-20.081-.25l-.052 2z" mask="url(#mqdfxl8hrc)"/>
            </g>
        </g>
    </g>
</svg>
